<?xml version="1.0" encoding="UTF-8"?>
<svg width="640" height="480" xmlns="http://www.w3.org/2000/svg">
 <g>
  <title>Layer 1</title>
  <g>
   <path fill-rule="evenodd" d="m592.305115,191.544647c5.517517,-1.886932 3.445313,6.952606 8.96283,5.065643c2.939758,5.420227 -4.569275,12.294312 -1.792603,25.325668l-3.285767,-1.266418l-2.091919,3.799225c-4.006409,-1.091644 -0.725952,-12.481735 -1.792542,-17.729736l0.795898,-6.894333l-4.381042,-3.234406c0,-0.84343 0,-1.689392 0,-2.532822l2.688843,1.266403l0.896301,-3.799225z" clip-rule="evenodd"/>
   <path fill-rule="evenodd" d="m597.383423,225.732651l2.091858,-3.799225c12.313171,10.458008 23.018311,23.190491 34.053284,35.456924c1.249451,12.737549 -3.040161,17.651245 -1.792542,30.388794c-54.934814,7.043762 -105.169556,15.678162 -157.723846,25.325653c-16.547119,3.036835 -35.60025,4.239929 -50.18631,10.128754c-21.673859,8.753418 -29.516296,30.799072 -55.562195,35.456909c-12.723633,2.271942 -22.147095,-4.546387 -35.845825,-2.532806c-16.568665,2.434021 -36.362122,18.585846 -53.771484,27.855957c-51.812164,27.595062 -105.924179,57.654572 -152.347908,91.171356c-13.93895,-20.201752 -21.933769,-46.864716 -32.262505,-70.911316c-29.917839,-69.657623 -62.753963,-141.475708 -93.200608,-212.729004c-1.604342,-8.175934 5.845541,-3.558609 7.170243,-7.59845l2.688841,1.266403l2.688841,-1.266403c37.405365,87.278412 75.938244,172.963715 114.709538,258.314667c1.066574,-5.245453 -2.215591,-16.635559 1.792557,-17.727203l2.091934,3.799225l3.285751,-1.266418c2.378738,11.103882 -3.387939,23.719879 -1.792557,25.325684c65.761887,-45.524902 115.794037,-113.277832 215.080383,-111.431427c-1.520081,-29.157806 9.403778,-40.737854 16.129486,-58.247223c-2.837616,-0.210236 -6.835052,1.218292 -7.168457,-2.532837l0.896301,-3.796692l-0.896301,-3.799225c1.525482,0.466034 1.690369,-0.987793 1.792572,-2.532806l2.430695,-3.07486l-0.638153,-4.523621c6.928253,0.341949 7.068054,10.273132 12.546143,12.664093l2.176178,3.434509l3.199707,-0.901672c-1.197418,10.969635 -8.294159,13.60379 -8.961029,25.32312c8.442993,-0.731995 12.689545,-7.39328 23.299713,-5.06311c7.066284,2.677185 6.833252,15.673096 10.755371,22.790314c35.003357,-61.124542 121.141235,-50.000397 197.156555,-53.18161c-2.131348,-14.718201 -7.446289,-24.933075 -7.170227,-43.052856l3.283997,1.266403z" clip-rule="evenodd"/>
   <path fill-rule="evenodd" d="m11.289557,180.14949l-3.285765,1.266418c0.148783,-4.00946 -0.862221,-9.660172 1.792561,-10.131271l2.091918,3.799225l3.285765,-1.266403c-0.148783,4.009445 0.862222,9.657639 -1.792561,10.131256l-2.091918,-3.799225z" clip-rule="evenodd"/>
   <g>
    <path stroke-width="3.1619" stroke-linecap="round" stroke="#000000" fill-rule="evenodd" fill="none" d="m596.189575,220.66954c0.397949,1.689392 0.795898,3.376251 1.193848,5.065643" clip-rule="evenodd"/>
    <path stroke-width="3.0818" stroke-linecap="round" stroke="#000000" fill-rule="evenodd" fill="none" d="m10.692633,185.215134c0.071703,-1.689392 0.329832,-3.376251 0.596924,-5.065643" clip-rule="evenodd"/>
    <path stroke-width="3.3387" stroke-linecap="round" stroke="#000000" fill-rule="evenodd" fill="none" d="m11.88827,175.083862c1.512922,-12.504532 2.841209,-28.537277 12.067519,-34.443802" clip-rule="evenodd"/>
    <path stroke-width="2.2807" stroke-linecap="round" stroke="#000000" fill-rule="evenodd" fill="none" d="m23.95579,140.642578c56.067709,-52.571198 134.538855,-136.078257 199.770132,-58.538521" clip-rule="evenodd"/>
    <path stroke-width="2.328" stroke-linecap="round" stroke="#000000" fill-rule="evenodd" fill="none" d="m223.725922,82.104057c38.599213,-91.070057 122.960724,-45.874428 184.587158,-65.199839c60.604675,60.187387 123.855194,116.261492 183.097504,178.442186" clip-rule="evenodd"/>
    <path stroke-width="3.9899" stroke-linecap="round" stroke="#000000" fill-rule="evenodd" fill="none" d="m375.817535,278.554596c49.404755,-95.423965 145.041412,-61.076385 217.285248,-78.707367" clip-rule="evenodd"/>
    <path stroke-width="3.0382" stroke-linecap="round" stroke="#000000" fill-rule="evenodd" fill="none" d="m223.725922,82.104057c46.701569,60.511589 91.099731,124.84774 138.009247,184.873024" clip-rule="evenodd"/>
    <path stroke-width="2.6156" stroke-linecap="round" stroke="#000000" fill-rule="evenodd" fill="none" d="m23.95579,140.642578c39.46681,78.33757 72.29756,164.154572 111.303671,243.373566" clip-rule="evenodd"/>
    <path stroke-width="2.9805" stroke-linecap="round" stroke="#000000" fill-rule="evenodd" fill="none" d="m135.261261,384.013611c71.320618,-45.907379 139.6763,-123.29007 223.145111,-107.629639" clip-rule="evenodd"/>
    <path stroke-width="3.7282" stroke-linecap="round" stroke="#000000" fill-rule="evenodd" fill="none" d="m135.261261,384.013611c-0.996674,14.781525 -1.667084,29.616272 -3.285767,44.319275" clip-rule="evenodd"/>
   </g>
  </g>
 </g>
</svg>